<?xml version="1.0" standalone="no"?><!DOCTYPE svg PUBLIC "-//W3C//DTD SVG 1.1//EN" "http://www.w3.org/Graphics/SVG/1.1/DTD/svg11.dtd"><svg t="1492944121649" class="icon" style="" viewBox="0 0 1024 1024" version="1.1" xmlns="http://www.w3.org/2000/svg" p-id="6442" xmlns:xlink="http://www.w3.org/1999/xlink" width="32" height="32"><defs><style type="text/css"></style></defs><path d="M358.053193 627.114015c-28.403999 28.386592-54.108901 100.142015-25.705927 128.546014 28.402975 28.387616 100.159422 2.699097 128.52656-25.704902l25.74074-25.723333-102.855447-102.823705-25.705926 25.705926zM512.32254 678.524843l437.027368-437.032488c14.200976-14.201999 14.200976-37.22726 0-51.429259l-51.411852-51.411852c-14.200976-14.201999-37.243643-14.201999-51.444619 0L409.464021 575.701139l102.858519 102.823704z" fill="#515151" p-id="6443"></path><path d="M895.999744 832.00064c0 64.000128-64.000128 64.000128-64.000128 64.000128H191.99936c-64.000128 0-64.000128-64.000128-64.000128-64.000128V192.000384c0-64.000128 64.000128-64.000128 64.000128-64.000128h512V64.000128H191.99936C63.999104 64.000128 63.999104 192.000384 63.999104 192.000384v640.000256c0 128.000256 128.000256 128.000256 128.000256 128.000256h640.000256c128.000256 0 128.000256-128.000256 128.000256-128.000256V447.999872h-64.000128v384.000768z" fill="#515151" p-id="6444"></path></svg>