<?xml version="1.0" standalone="no"?><!DOCTYPE svg PUBLIC "-//W3C//DTD SVG 1.1//EN" "http://www.w3.org/Graphics/SVG/1.1/DTD/svg11.dtd"><svg t="1492944335783" class="icon" style="" viewBox="0 0 1026 1024" version="1.1" xmlns="http://www.w3.org/2000/svg" p-id="14761" xmlns:xlink="http://www.w3.org/1999/xlink" width="32.0625" height="32"><defs><style type="text/css"></style></defs><path d="M51.310489 373.533513c94.126719-80.52361 374.385783-324.552863 374.385783-324.552863s81.85121-86.035897 167.3875 0l145.665458 126.498951 0-68.999428c0 0 55.018099-93.7025 127.776718-5.111069l0 187.831775 139.276622 120.110115c0 0 47.277386 53.666221-6.388836 103.499141l-122.665649 57.499523-3.833302 328.386165c0 0-7.666603 58.77729-52.388454 65.166126l-531.551146 0c0 0-103.499141 123.943416-213.387119 14.055439 0 0-77.943798-72.832729-16.610973-162.276432l86.888168-79.221565-1.226656-174.212055-102.272485-50.037363C42.366119 512.171251-57.22561 466.38502 51.310489 373.533513zM195.772291 691.272043l107.332443-106.054676c0 0-20.444275-270.886642 287.497615-231.275859l7.666603 103.499141 25.555344 25.555344 104.776909 12.777672c0 0 62.610592 270.886642-238.942462 277.275478L340.159982 922.547903l438.274142 0c0 0 37.055248-1.277767 39.610783-62.610592l8.94437-320.719562 122.665649-54.943989c0 0 43.444084-20.444275 0-49.83292L577.824677 98.388073c0 0-64.983405-65.166126-135.443321 2.555534L94.828684 410.163264c0 0-48.555153 47.277386 6.388836 70.277195l95.832538 43.444084L195.772291 691.272043zM543.921681 446.665239l-3.833302-42.166317c-221.053722-7.666603-177.609638 203.164981-177.609638 203.164981l-242.775764 242.775764c-49.83292 54.943989 0 99.66584 0 99.66584 60.693941 60.693941 111.165745 0 111.165745 0l241.497997-235.109161c217.22042 35.777481 206.998283-172.498569 206.998283-172.498569l-35.777481-7.666603-81.777099 74.110496-89.443702-94.554771L543.921681 446.665239z" p-id="14762" fill="#515151"></path></svg>