<?xml version="1.0" standalone="no"?><!DOCTYPE svg PUBLIC "-//W3C//DTD SVG 1.1//EN" "http://www.w3.org/Graphics/SVG/1.1/DTD/svg11.dtd"><svg t="1492944068241" class="icon" style="" viewBox="0 0 1024 1024" version="1.1" xmlns="http://www.w3.org/2000/svg" p-id="4458" xmlns:xlink="http://www.w3.org/1999/xlink" width="32" height="32"><defs><style type="text/css"></style></defs><path d="M943.173 1013.333zM513.658 228.047c-29.355 0-55.567-27.609-55.567-58.714s26.209-58.714 55.567-58.714c32.676 0 55.568 27.609 55.568 58.714 0 37.921-26.209 58.714-55.568 58.714zM667.082 138.231c-16.251 0-26.209-13.806-26.209-27.609 0-27.609-22.891-51.723-52.245-51.723h-153.596c-29.355 0-52.245 24.114-52.245 51.723 0 17.298-13.105 27.609-26.209 27.609h-19.571c-16.251 0-26.209 13.806-26.209 27.609v82.827c0 17.298 13.105 27.609 26.209 27.609h346.337c16.251 0 26.209-13.806 26.209-27.609v-82.827c0-17.298-13.105-27.609-26.209-27.609h-16.251zM781.539 493.829l-290.768 359.268c-6.464 10.31-26.209 6.99-35.997-3.496l-196.057-169.148c-3.32-3.496-6.464-10.31 0-13.806l35.997-44.909c3.32-3.496 9.786-3.496 13.105 0l153.596 131.232c6.464 3.496 13.105 3.496 19.571-3.496l241.666-310.864c3.32-6.99 9.786-6.99 13.105-3.496l45.78 41.415c6.464 3.496 9.786 6.99 0 17.298zM781.539 200.439v120.921c0 17.298-13.105 27.609-26.209 27.609l-486.829 3.496c-16.251 0-26.209-13.806-26.209-27.609v-120.921c0-17.298-13.105-27.609-26.209-27.609h-16.251c-42.462-3.496-62.035 24.114-62.035 62.207v673.451c0 31.103 29.355 72.517 68.673 72.517h610.895c32.676 0 68.673-37.921 68.673-72.517v-677.121c0-31.103-22.891-62.207-58.887-62.207h-16.251c-16.251 0.175-29.355 10.487-29.355 27.784zM387.672 799.275z" fill="#515151" p-id="4459"></path></svg>