<?xml version="1.0" standalone="no"?><!DOCTYPE svg PUBLIC "-//W3C//DTD SVG 1.1//EN" "http://www.w3.org/Graphics/SVG/1.1/DTD/svg11.dtd"><svg t="1493038604938" class="icon" style="" viewBox="0 0 1024 1024" version="1.1" xmlns="http://www.w3.org/2000/svg" p-id="2383" xmlns:xlink="http://www.w3.org/1999/xlink" width="32" height="32"><defs><style type="text/css"></style></defs><path d="M512 64.703651c-247.036349 0-447.296349 200.24158-447.296349 447.296349 0 247.052722 200.26 447.296349 447.296349 447.296349 247.054769 0 447.296349-200.243627 447.296349-447.296349C959.296349 264.945231 759.054769 64.703651 512 64.703651zM827.250964 773.832334c-40.876989-17.071817-137.394207-50.561559-197.110263-68.198242-5.114484-1.600451-5.897314-1.856277-5.897314-23.060205 0-17.507746 7.188726-35.144428 14.214746-50.069349 7.624654-16.216333 16.652262-43.481304 19.874653-67.942415 9.081843-10.520611 21.421892-31.268144 29.339212-70.817905 6.970762-34.853809 3.712555-47.539736-0.892323-59.443857-0.490164-1.254573-1.000793-2.491751-1.345648-3.730974-1.747807-8.1711 0.63752-50.634214 6.606465-83.575464 4.130064-22.604834-1.037632-70.672596-32.160467-110.441345-19.656689-25.134447-57.278541-55.985082-125.965923-60.280922l-37.675064 0.036839c-67.52286 4.259-105.144712 35.108612-124.801401 60.243059-31.122835 39.768749-36.290531 87.835488-32.177863 110.422925 5.986341 32.959669 8.371668 75.423807 6.6607 83.432201-0.381693 1.401929-0.892323 2.639107-1.382487 3.89368-4.604878 11.904121-7.863085 24.590048-0.892323 59.443857 7.91732 39.550785 20.25737 60.297294 29.339212 70.817905 3.222391 24.461111 12.249999 51.726082 19.874653 67.942415 5.587252 11.866259 8.191566 28.009937 8.191566 50.833759 0 21.203928-0.782829 21.458731-5.568832 22.970154-61.773925 18.23634-160.093185 53.763484-196.749036 69.817112-60.297294-71.40119-96.753601-163.569356-96.753601-264.126586 0-226.088248 183.936219-410.021397 410.021397-410.021397 226.088248 0 410.021397 183.934173 410.021397 410.021397C922.021397 611.465362 886.384759 702.758602 827.250964 773.832334z" p-id="2384" fill="#ffffff"></path></svg>