<?xml version="1.0" standalone="no"?><!DOCTYPE svg PUBLIC "-//W3C//DTD SVG 1.1//EN" "http://www.w3.org/Graphics/SVG/1.1/DTD/svg11.dtd"><svg t="1492944101734" class="icon" style="" viewBox="0 0 1024 1024" version="1.1" xmlns="http://www.w3.org/2000/svg" p-id="5743" xmlns:xlink="http://www.w3.org/1999/xlink" width="32" height="32"><defs><style type="text/css"></style></defs><path d="M891.157971 577.517179c-41.789779-42.487673-97.623411-66.156746-157.215648-66.647933-0.629333-0.005117-1.252527-0.007163-1.88186-0.007163-42.562375 0-83.350336 11.870352-118.547976 34.038234-5.796006-2.164293-11.629875-4.191462-17.500583-6.078439 19.912515-11.192923 38.416961-25.178449 55.010895-41.772382 47.607274-47.607274 73.826426-110.906949 73.826426-178.237427s-26.218128-130.630153-73.826426-178.237427S540.116873 66.747193 472.786395 66.747193c-67.330478 0-130.630153 26.219151-178.237427 73.826426s-73.826426 110.906949-73.826426 178.237427 26.219151 130.629129 73.826426 178.237427c16.598027 16.598027 35.108612 30.587646 55.027268 41.781592-11.366885 3.65218-22.597671 7.820106-33.67496 12.504802-47.996131 20.300348-91.095741 49.356105-128.10054 86.36295s-66.062602 80.104409-86.36295 128.101563c-21.022803 49.704029-31.682583 102.487186-31.682583 156.88512l51.223638 0c0-0.788969 0.024559-1.570775 0.029676-2.358721l488.304322 0c35.593659 23.555485 77.251432 36.387745 120.93842 36.749996 0.630357 0.00614 1.243317 0.008186 1.871627 0.008186 59.204403 0 114.976638-22.964014 157.044756-64.662719 42.090631-41.72224 65.542762-97.338932 66.033949-156.604734C955.691753 676.222225 932.947749 620.004853 891.157971 577.517179zM271.945157 318.812069c0-110.744243 90.096994-200.841238 200.841238-200.841238 110.74322 0 200.840214 90.096994 200.840214 200.841238 0 110.74322-90.096994 200.839191-200.840214 200.839191C362.042151 519.65126 271.945157 429.554266 271.945157 318.812069zM125.051599 869.101117c25.88146-168.650071 171.959443-298.227242 347.734796-298.227242 32.32522 0 63.914682 4.285606 94.432743 12.783141-37.173644 40.685631-57.764612 92.978624-58.222029 148.47252-0.412392 50.092885 15.598256 97.798397 45.533033 136.971581L125.051599 869.101117zM732.121861 905.859299c-0.488117 0-0.960885-0.002047-1.447978-0.00614-94.770434-0.787946-171.236989-78.529541-170.456207-173.300998 0.426719-51.598168 23.851221-97.908914 60.439534-129.191384 0.020466 0.010233 0.039909 0.019443 0.060375 0.027629l0.059352-0.127913c28.29544-24.149003 64.444754-39.319517 103.914698-41.006949-9.825786 3.51608-16.893762 12.866029-16.984836 23.908526l-1.216711 147.598616c-0.056282 6.791683 2.587941 13.32754 7.351432 18.170848l80.478939 81.824587c5.013177 5.096065 11.634991 7.652284 18.260899 7.652284 6.483668 0 12.971429-2.446725 17.959024-7.352455 10.083659-9.917884 10.218736-26.134217 0.299829-36.219923l-73.040527-74.261331 1.12973-136.991024c0.091074-11.053754-6.834662-20.529569-16.615423-24.198122 90.664929 5.341658 162.4253 81.178881 161.668053 173.004239C903.199215 829.386604 826.104349 905.859299 732.121861 905.859299z" p-id="5744" fill="#515151"></path></svg>